<?xml version="1.0" encoding="utf-8"?>
<!-- Generator: Adobe Illustrator 21.0.2, SVG Export Plug-In . SVG Version: 6.00 Build 0)  -->
<svg version="1.1" id="Layer_1" xmlns="http://www.w3.org/2000/svg" xmlns:xlink="http://www.w3.org/1999/xlink" x="0px" y="0px"
	 viewBox="0 0 52.4 55.9" style="enable-background:new 0 0 52.4 55.9;" xml:space="preserve">
<style type="text/css">
	.st0{fill:#0A838C;}
</style>
<path class="st0" d="M32.3,0.4c-5.1,0-10.2,0-15.2,0c-1.8,0-2.3,0.2-2.6,1.4c-0.5,1.8-1,3.6-1.6,5.4c-2.2,7.3-4.3,14.7-6.5,22
	c-0.3,1.2,0.3,1.6,2.2,1.7c2.4,0,4.7,0,7.1,0c0.9,0,1.7,0.2,1.9,0.7c0.1,0.4,0,0.9-0.1,1.3C15.3,40,13,47.1,10.6,54.1
	c-0.2,0.6-0.3,1.3,0.8,1.6c1.1,0.3,1.9,0,2.6-0.6C25.8,45,37.5,34.8,49.3,24.7c0.5-0.5,1-0.9,0.5-1.5c-0.4-0.6-1.3-0.6-2.2-0.6
	c-2.3,0-4.6,0-6.8,0c-2.5,0-3.1-0.6-2.2-2c3.7-6.1,7.3-12.1,11-18.2c0.9-1.4,0.2-2-2.2-2C42.3,0.4,37.3,0.4,32.3,0.4z"/>
</svg>
