<?xml version="1.0" encoding="utf-8"?>
<!-- Generator: Adobe Illustrator 21.0.2, SVG Export Plug-In . SVG Version: 6.00 Build 0)  -->
<svg version="1.1" id="Layer_1" xmlns="http://www.w3.org/2000/svg" xmlns:xlink="http://www.w3.org/1999/xlink" x="0px" y="0px"
	 viewBox="0 0 88.9 89.4" style="enable-background:new 0 0 88.9 89.4;" xml:space="preserve">
<style type="text/css">
	.st0{fill:#FFFFFF;}
	.st1{fill:#474747;}
	.st2{fill:#E0E0E0;}
</style>
<path class="st0" d="M5.9,13.5C6,14.1,6,14.7,6.1,15.2c0.8,5.2,1.5,10.4,2.3,15.6c0.1,0.5,0,0.9-0.5,1.2c-3.1,2.2-6.1,4.5-9.2,6.8
	c-0.3,0.2-0.6,0.7-0.6,1c0.6,3.2,1.1,6.4,1.8,9.5c0.5,2.3,1,4.7,2.6,6.6c1.1,1.3,2.2,2.6,3.4,3.8c0.4,0.5,0.6,0.9,0.7,1.6
	c0.2,4.7,0.4,9.5,0.7,14.2c0,0.3,0.2,0.6,0.4,0.7c5,3.8,10.1,7.5,15.1,11.3c0.4,0.3,0.7,0.2,1,0c1.9-1.1,3.8-2.2,5.7-3.2
	c2.7-1.6,5.5-3.1,8.2-4.7c0.2,0.2,0.3,0.3,0.4,0.5c2.2,2.9,4.3,5.9,6.5,8.8c0.2,0.2,0.7,0.5,1,0.4c5.3-1.2,10.6-2.4,15.9-3.6
	c2.9-0.7,5.6-1.7,7.6-4c4.5-5,9-10,13.5-14.9c0.6-0.7,0.7-1.2,0.4-2c-2-5.5-4-11.1-6-16.6c-0.2-0.5-0.2-0.8,0.2-1.2
	c2.1-2.6,4.3-5.3,6.3-7.9c1.8-2.3,3.5-4.7,5.3-7.1c-0.3-0.2-0.6-0.4-0.8-0.6c-5.3-3.3-10.6-6.7-15.8-10c-0.6-0.4-0.8-0.7-0.8-1.4
	c0.1-1.4,0.1-2.7,0-4.1c0-0.4-0.2-0.8-0.5-1.1c-1-1-2-1.9-3.1-2.9C63.8,8,59.7,4.2,55.6,0.4c-0.5-0.4-0.8-0.5-1.4-0.2
	c-5.6,2.6-11.1,5.1-16.7,7.7C37.3,8,36.9,8,36.6,8.1c-3,0.4-6,0.7-9,1.3c-2.3,0.5-4.6,1.6-6.9,2c-3.5,0.7-7,1.1-10.5,1.6
	C8.8,13.2,7.4,13.3,5.9,13.5z"/>
<path class="st1" d="M5.9,13.5c1.5-0.2,2.9-0.2,4.3-0.4c3.5-0.5,7-0.9,10.5-1.6c2.3-0.5,4.6-1.6,6.9-2c3-0.6,6-0.9,9-1.3
	c0.3,0,0.6-0.1,0.9-0.2c5.6-2.5,11.1-5.1,16.7-7.7c0.6-0.3,0.9-0.3,1.4,0.2c4.1,3.8,8.1,7.6,12.2,11.4c1,0.9,2.1,1.9,3.1,2.9
	c0.3,0.3,0.4,0.7,0.5,1.1c0.1,1.4,0.1,2.7,0,4.1c0,0.7,0.2,1.1,0.8,1.4c5.3,3.3,10.6,6.7,15.8,10c0.3,0.2,0.5,0.3,0.8,0.6
	c-1.8,2.4-3.5,4.8-5.3,7.1c-2.1,2.7-4.2,5.3-6.3,7.9c-0.3,0.4-0.3,0.8-0.2,1.2c2,5.5,4,11.1,6,16.6c0.3,0.8,0.2,1.4-0.4,2
	c-4.5,5-9,9.9-13.5,14.9c-2.1,2.3-4.7,3.4-7.6,4C56.3,87,51,88.2,45.7,89.4c-0.3,0.1-0.8-0.2-1-0.4c-2.2-2.9-4.3-5.8-6.5-8.8
	c-0.1-0.2-0.2-0.3-0.4-0.5c-2.8,1.6-5.5,3.1-8.2,4.7c-1.9,1.1-3.8,2.1-5.7,3.2c-0.4,0.2-0.7,0.3-1,0c-5-3.8-10.1-7.5-15.1-11.3
	c-0.2-0.2-0.4-0.5-0.4-0.7C7.1,70.8,6.8,66,6.6,61.3c0-0.6-0.2-1.1-0.7-1.6c-1.2-1.2-2.3-2.5-3.4-3.8C1,54,0.5,51.6,0,49.3
	c-0.7-3.2-1.2-6.3-1.8-9.5c0-0.3,0.3-0.7,0.6-1c3-2.3,6.1-4.6,9.2-6.8c0.5-0.3,0.6-0.7,0.5-1.2c-0.8-5.2-1.6-10.4-2.3-15.6
	C6,14.7,6,14.1,5.9,13.5z M44.6,49.4c-1.7,0.2-3.2,0.4-4.8,0.5c-4.7,0.5-9.4,1-14.1,1.5c-0.3,0-0.8-0.1-1.1-0.3
	c-3.3-2.7-6.6-5.4-9.9-8.1c-0.4-0.3-0.6-0.4-1.1-0.2c-1.4,0.6-2.8,1.2-4.2,1.7C9,44.8,8.9,45.1,9,45.5c0.3,1.1,0.5,2.2,0.8,3.2
	c0.2,0.7,0.5,1.5,1,2c1.5,1.7,3.1,3.2,4.6,4.8c0.3,0.3,0.5,0.7,0.6,1.1c0.3,4.5,0.5,8.9,0.7,13.4c0,0.6,0.2,1,0.7,1.4
	c1.6,1.1,3.3,2.2,4.7,3.5c1.3,1.1,2.3,1.2,3.7,0.2c1.9-1.3,3.9-2.3,6-3.4c-1-1.3-2-2.6-2.9-3.9c2.7-2,5.4-4,8.1-6
	c0.2,0.3,0.4,0.5,0.5,0.7c3.8,5.1,7.6,10.3,11.3,15.4c0.3,0.4,0.6,0.7,1.1,0.5c3.4-0.9,6.9-1.7,10.3-2.5c0.9-0.2,1.7-0.7,2.4-1.4
	c3.2-3.5,6.3-6.9,9.5-10.4c0.2-0.2,0.3-0.7,0.2-1c-0.5-1.7-1.2-3.3-1.8-5c-0.4-1.2-0.9-2.4-1.3-3.6c-2.8,2-5.5,4-8.2,6
	c-1.9-2.8-3.7-5.5-5.6-8.2c7.4-5.2,14.5-10.5,19.4-18.1c-0.1-0.1-0.3-0.2-0.5-0.4c-3.9-2.4-7.8-4.7-11.6-7.1
	c-0.6-0.4-1.1-0.4-1.8-0.2c-5,1.4-10,2.7-14.9,4c-0.7-1.2-1.3-2.3-2-3.3c-2.1-2.9-4.2-5.8-6.2-8.7c-0.3-0.5-0.8-0.7-1.4-0.6
	c-3,0.2-6,0.8-8.9,1.6c-2.2,0.7-4.4,1.3-6.6,1.9c-1.2,0.3-2.5,0.5-3.8,0.7c0.6,3.8,1.1,7.5,1.7,11.2c0,0.2,0.2,0.4,0.4,0.5
	c2.8,2.3,5.7,4.6,8.5,6.9c0.3,0.2,0.7,0.4,1.1,0.3c2.3-0.2,4.5-0.5,6.8-0.7c2.7-0.3,5.4-0.6,8.2-0.9C43.9,42.9,44.3,46.1,44.6,49.4z
	 M47.1,14.2c0.9,1.2,1.7,2.3,2.4,3.4c1,1.5,1,1.5,2.7,1c2.2-0.6,4.4-1.2,6.8-1.9c-1.9-1.8-3.7-3.5-5.6-5.2c-0.1-0.1-0.4-0.1-0.5-0.1
	C51,12.4,49.1,13.3,47.1,14.2z"/>
<path class="st2" d="M44.6,49.4c-0.3-3.3-0.7-6.5-1-9.8c-2.8,0.3-5.5,0.6-8.2,0.9c-2.3,0.3-4.5,0.5-6.8,0.7c-0.3,0-0.8-0.1-1.1-0.3
	c-2.9-2.3-5.7-4.6-8.5-6.9c-0.2-0.1-0.4-0.3-0.4-0.5c-0.6-3.7-1.1-7.4-1.7-11.2c1.3-0.2,2.6-0.4,3.8-0.7c2.2-0.6,4.4-1.3,6.6-1.9
	c2.9-0.9,5.9-1.4,8.9-1.6c0.6,0,1,0.1,1.4,0.6c2.1,2.9,4.2,5.8,6.2,8.7c0.7,1,1.3,2.1,2,3.3c5-1.3,10-2.6,14.9-4
	c0.7-0.2,1.2-0.2,1.8,0.2c3.9,2.4,7.8,4.7,11.6,7.1c0.2,0.1,0.4,0.3,0.5,0.4c-4.9,7.7-12.1,13-19.4,18.1c1.8,2.7,3.7,5.4,5.6,8.2
	c2.7-2,5.4-4,8.2-6c0.4,1.2,0.9,2.4,1.3,3.6c0.6,1.7,1.2,3.3,1.8,5c0.1,0.3,0,0.8-0.2,1c-3.1,3.5-6.3,6.9-9.5,10.4
	c-0.7,0.7-1.4,1.2-2.4,1.4c-3.4,0.8-6.9,1.7-10.3,2.5c-0.5,0.1-0.8-0.1-1.1-0.5c-3.8-5.1-7.5-10.3-11.3-15.4
	c-0.2-0.2-0.3-0.4-0.5-0.7c-2.7,2-5.3,4-8.1,6c1,1.3,1.9,2.6,2.9,3.9c-2,1.1-4.1,2.2-6,3.4c-1.4,0.9-2.4,0.9-3.7-0.2
	c-1.5-1.3-3.1-2.4-4.7-3.5c-0.5-0.4-0.7-0.8-0.7-1.4c-0.2-4.5-0.4-8.9-0.7-13.4c0-0.4-0.3-0.8-0.6-1.1c-1.5-1.6-3.1-3.2-4.6-4.8
	c-0.5-0.5-0.8-1.3-1-2c-0.3-1-0.6-2.1-0.8-3.2c-0.1-0.4-0.1-0.7,0.5-0.9c1.4-0.5,2.8-1.1,4.2-1.7c0.4-0.2,0.7-0.1,1.1,0.2
	c3.3,2.7,6.6,5.4,9.9,8.1c0.3,0.2,0.7,0.3,1.1,0.3c4.7-0.5,9.4-1,14.1-1.5C41.3,49.8,42.9,49.6,44.6,49.4z"/>
<path class="st2" d="M47.1,14.2c2-0.9,3.9-1.8,5.8-2.7c0.1-0.1,0.4,0,0.5,0.1c1.8,1.7,3.6,3.4,5.6,5.2c-2.3,0.6-4.6,1.3-6.8,1.9
	c-1.7,0.5-1.7,0.4-2.7-1C48.8,16.5,48,15.4,47.1,14.2z"/>
</svg>
