<?xml version="1.0" encoding="utf-8"?>
<!-- Generator: Adobe Illustrator 21.0.2, SVG Export Plug-In . SVG Version: 6.00 Build 0)  -->
<svg version="1.1" id="Layer_1" xmlns="http://www.w3.org/2000/svg" xmlns:xlink="http://www.w3.org/1999/xlink" x="0px" y="0px"
	 viewBox="0 0 14 12.7" style="enable-background:new 0 0 14 12.7;" xml:space="preserve">
<style type="text/css">
	.st0{fill:#E4AE24;}
</style>
<path class="st0" d="M3.2,2c0.1-0.6,0.3-1.1,0.7-1.6C4.6,1,4.7,2,4.3,3.2C4.4,3.1,4.5,3,4.6,3c0.3-0.2,0.6-0.4,1-0.5
	c0.3-0.1,0.6,0,0.8,0.2C6.3,3.1,6.2,3.6,6.1,4.1c0,0.1,0,0.2,0,0.2c0,0.2,0.2,0.2,0.3,0.2c0.2,0,0.2-0.1,0.2-0.2
	C6.7,4,6.8,3.7,6.9,3.4c0-0.1,0.1-0.2,0.1-0.4c0.3,0.4,0.6,0.7,0.9,1C8,4.2,8,4.4,8,4.6C7.9,5,7.8,5.4,7.7,5.8c0,0.2,0,0.3,0.1,0.4
	C8.1,6.3,8.2,6.2,8.3,6c0.1-0.3,0.1-0.6,0.2-0.9c0,0,0-0.1,0-0.1c0.1,0.2,0.2,0.3,0.3,0.4c0.3,0.5,0.5,0.9,0.8,1.4
	c0,0.1,0,0.1,0,0.2C9.5,7.4,9.4,7.8,9.3,8.3C9.3,8.6,9.5,8.8,9.8,8.7c0.1,0,0.2-0.1,0.2-0.3C10,8.3,10.1,8,10.1,7.8c0,0,0-0.1,0-0.1
	c0.1,0.2,0.2,0.4,0.3,0.6c0.3,0.5,0.5,1,0.7,1.5c0,0.1,0,0.1,0,0.2c-0.1,0.3-0.1,0.6-0.2,0.9c0,0.1,0,0.2,0,0.3
	c0.1,0.1,0.2,0.2,0.3,0.1c0.1,0,0.2-0.2,0.2-0.3c0-0.1,0-0.2,0-0.3c0,0.1,0.1,0.1,0.1,0.1c0.1,0.4,0.3,0.7,0.4,1.1
	c0,0.1,0.1,0.2,0,0.3c-0.1,0.1-0.2,0.1-0.3,0c-0.6-0.3-1.3-0.6-1.9-0.9c-0.3-0.1-0.6-0.3-0.9-0.5c0.1,0,0.2,0,0.3,0
	c0.2,0,0.3-0.1,0.2-0.3c0-0.2-0.2-0.3-0.3-0.3c-0.3,0.1-0.7,0.1-1,0.2c-0.1,0-0.1,0-0.2,0C7.4,10,6.7,9.6,6.1,9.3c0,0,0,0,0,0
	c0.2,0,0.5,0,0.7,0C7,9.2,7,9,7,8.8c0-0.2-0.2-0.3-0.3-0.3C6.3,8.6,5.9,8.7,5.6,8.8c-0.1,0-0.3,0-0.4-0.1C4.8,8.4,4.5,8.1,4.1,7.8
	C4,7.8,4,7.7,3.9,7.6C4.3,7.6,4.7,7.5,5,7.4c0.1,0,0.3,0,0.3-0.2C5.4,7,5.2,6.8,5,6.9C4.5,6.9,4,7,3.5,7.1c-0.1,0-0.1,0-0.2-0.1
	C3.2,6.9,3,6.7,2.8,6.5C2.5,6.1,2.5,5.6,2.7,5.1C2.8,4.9,3,4.6,3.2,4.3c0,0,0.1-0.1,0.1-0.1c-1.1,0.4-2,0.3-2.8-0.4
	c0.4-0.5,1-0.7,1.6-0.7C1.6,2.5,1.3,1.9,1.3,1.2c0.4,0,0.7,0.1,1,0.2C2.6,1.6,2.9,1.8,3.2,2z"/>
</svg>
