<?xml version="1.0" encoding="utf-8"?>
<!-- Generator: Adobe Illustrator 21.0.2, SVG Export Plug-In . SVG Version: 6.00 Build 0)  -->
<svg version="1.1" id="Layer_1" xmlns="http://www.w3.org/2000/svg" xmlns:xlink="http://www.w3.org/1999/xlink" x="0px" y="0px"
	 viewBox="0 0 93.3 37.7" style="enable-background:new 0 0 93.3 37.7;" xml:space="preserve">
<style type="text/css">
	.st0{fill:#0A838C;}
</style>
<g>
	<g>
		<path class="st0" d="M1.5,0c22.1,0,47,0,69.2,0c0,7,0,14,0,21c-22.2,0-47.1,0-69.2,0C1.5,13.9,1.5,7,1.5,0z"/>
		<path class="st0" d="M1.5,30.4c0.6-2.3,1.7-4.3,3.4-6c1.2-1.2,2.6-1.8,4.3-1.7c4.9,0,9.8,0,14.7,0c1.9,0,3.3,0.7,4.6,2
			c1.5,1.7,2.6,3.6,3.1,5.8c0.1,0.5,0.1,1,0.2,1.5c-0.9,0-1.6,0-2.4,0c-0.1-0.3-0.1-0.6-0.2-0.9c-0.5-2.7-1.9-4.8-4.6-5.6
			c-2.5-0.8-4.9-0.6-6.9,1.5c-0.4,0.4-1.9,0.4-2.3,0c-2.6-2.3-6-2.6-8.7-0.6c-1.9,1.4-2.7,3.4-2.9,5.7c-0.7,0-1.4,0-2.2,0
			C1.5,31.5,1.4,30.9,1.5,30.4z"/>
		<path class="st0" d="M49.8,31.9c2,0.5,2.1,0.4,2.6-1.5c0.6-2.4,2-4.2,4.5-4.8c2.8-0.8,5.4,0,7.2,2.2c1.3,1.7,2.7,1.9,4.5,1.8
			c1.5-0.1,3.1-0.1,4.7,0c0.8,0,1.1-0.3,1.6-0.9c1-1.1,2-2.3,3.3-3c2.5-1.4,5.8-0.5,7.6,1.9c0.8,1.1,1.4,2.3,1.9,3.5
			c0.3,0.8,0.7,1,1.4,1c3,0,3.2-0.2,3.2-3.2c0-0.8-0.1-1.5,0-2.3c0.6-6-0.6-11.7-3.2-17.1c-0.1-0.2-0.2-0.4-0.2-0.6
			c-0.5-1.3-0.7-3-1.7-3.7c-0.9-0.6-2.6-0.2-3.9-0.2c-2.7,0-5.4,0.1-8.1,0c-1.1,0-1.3,0.4-1.3,1.4c0.1,5,0.1,10,0.2,15
			c0,0.4-0.1,0.7-0.1,1.2c-0.5,0-1,0-1.4,0c-5.1,0-10.2,0-15.4,0c-0.7,0-1.4,0.1-2,0.3C52.4,24.3,49.6,28.8,49.8,31.9z M78.2,6.8
			c2.6,0,5.1,0,7.6,0c0.3,0,0.6,0.3,0.7,0.5c1,2.8,2,5.6,3.1,8.6c-4-0.4-7.7-0.8-11.4-1.2C78.2,12,78.2,9.5,78.2,6.8z"/>
	</g>
	<path class="st0" d="M22.7,37.4c3,0,5.5-2.5,5.5-5.6c0-3-2.5-5.4-5.5-5.4c-3,0-5.5,2.5-5.5,5.6C17.3,34.9,19.7,37.4,22.7,37.4z"/>
	<path class="st0" d="M80.7,37.4c3,0,5.5-2.5,5.5-5.6c0-3-2.5-5.4-5.5-5.5c-3,0-5.5,2.5-5.5,5.6C75.3,34.9,77.7,37.4,80.7,37.4z"/>
	<path class="st0" d="M59.1,26.4c-3,0-5.6,2.5-5.5,5.5c0,3,2.5,5.5,5.4,5.5c3,0,5.5-2.5,5.5-5.5C64.5,28.8,62.1,26.4,59.1,26.4z"/>
	<path class="st0" d="M10.5,26.4c-3,0-5.4,2.5-5.4,5.5c0,3,2.5,5.6,5.5,5.5c3,0,5.4-2.5,5.4-5.5C16.1,28.8,13.6,26.3,10.5,26.4z"/>
</g>
</svg>
