<?xml version="1.0" encoding="utf-8"?>
<!-- Generator: Adobe Illustrator 21.0.2, SVG Export Plug-In . SVG Version: 6.00 Build 0)  -->
<svg version="1.1" id="Layer_1" xmlns="http://www.w3.org/2000/svg" xmlns:xlink="http://www.w3.org/1999/xlink" x="0px" y="0px"
	 viewBox="0 0 140 82.2" style="enable-background:new 0 0 140 82.2;" xml:space="preserve">
<style type="text/css">
	.st0{opacity:0.6;fill:#DBD9D6;}
	.st1{fill:#FFFFFF;}
	.st2{fill:#A2AC38;}
</style>
<g>
	<path class="st0" d="M137.5,24.8c-5.1,2.5-10.1,5-15.2,7.6c-0.4,0.2-0.8,0.4-1.2,0.5c-0.1-0.3-0.1-0.3-0.1-0.4c0-2.2,0-4.3,0-6.5
		c0-1.8-0.5-2.1-2.1-1.3c-5.1,2.5-10.2,5.1-15.3,7.6c-0.4,0.2-0.8,0.4-1.4,0.6c0-2.4,0-4.6,0-6.8c0-1.9-0.5-2.2-2.2-1.3
		c-5.4,2.7-10.9,5.4-16.3,8.2c-1.8,0.9-3.6,0.6-5.5,0.6c0-0.4-0.1-0.7-0.1-1c-0.5-10.1-1-20.1-1.5-30.2c-0.1-1.1-0.4-1.5-1.5-1.5
		c-2.1,0.1-4.3,0.1-6.4,0c-1.2,0-1.5,0.5-1.6,1.6c-0.3,7.7-0.7,15.4-1.1,23c-0.1,2.7-0.3,5.3-0.5,8.1c-0.6,0-5.4,0-12.1,0v-5.9
		c0-0.6-0.5-1-1-1H14.5c-0.5,0-1,0.4-1,1v5.9c-6.4,0-10.9,0-11.5,0c-1.9,0-2,0.1-2,1.9c0,11.9,0,23.7,0,35.6C0,72.8,0.2,73,1.9,73
		c26.3,0,109.6,0,135.8,0c1.7,0,1.9-0.2,1.9-1.9c0-15,0-30,0-45C139.7,24.2,139.2,23.9,137.5,24.8z M91.4,52.7c-2.7,0-5.5,0-8.3,0
		c0-2.7,0-5.4,0-8.2c2.8,0,5.5,0,8.3,0C91.4,47.2,91.4,49.9,91.4,52.7z M110.1,52.7c-2.8,0-5.5,0-8.3,0c0-2.7,0-5.4,0-8.2
		c2.8,0,5.5,0,8.3,0C110.1,47.3,110.1,50,110.1,52.7z M128.8,52.8c-2.8,0-5.5,0-8.3,0c0-2.8,0-5.5,0-8.2c2.8,0,5.5,0,8.3,0
		C128.8,47.3,128.8,50,128.8,52.8z"/>
	<path class="st1" d="M17.6,45c-2.8,0-5.5,0-8.3,0c0,2.8,0,5.5,0,8.2c2.8,0,5.5,0,8.3,0C17.6,50.5,17.6,47.8,17.6,45z"/>
</g>
<g>
	<g>
		<g>
			<path class="st2" d="M33.9,41.5c-1.1,0-1.7,0.4-2.1,1.3c-1,2.2-2.1,4.3-3.2,6.5c-0.4,0.8-0.3,1.3,0.3,1.9
				c3.2,3.2,6.4,6.4,9.7,9.5c0.4,0.4,1,0.6,1.5,0.6c11.8,0,23.6,0,35.4,0c0.9,0,1.2-0.4,1.4-1.2c1.8-5.6,3.6-11.3,5.4-16.9
				c0.4-1.4,0.2-1.7-1.3-1.7c-7.1,0-14.2,0-21.2,0c-0.8,0-1.6,0-2.4,0C49.5,41.6,41.7,41.6,33.9,41.5z M35.3,39.6
				c8.4,0,16.7-0.1,25.1-0.1c6.8,0,13.7-0.1,20.5-0.1c1.3,0,1.9-0.3,1.9-1.6c0-0.4,0.2-0.8,0.3-1.4c-1.2-0.1-2.3-0.3-3.4-0.4
				c0-0.1-0.1-0.2-0.1-0.2c-0.2-2-0.3-2.1-2.1-1.3c-1.1,0.4-1.9,0.6-3-0.1c-0.7-0.4-2-0.3-2.9,0.1c-2.3,1-4.5,1.2-6.8,0.3
				c-1.1-0.4-2.2-0.2-3,0.8c-0.8,1-2,1.2-3.2,1c-1.3-0.2-2.5-0.5-3.7-0.8c-1.5-0.4-2.9-0.2-4.3,0.6c-0.6,0.4-1.7,0.4-2.5,0.2
				c-1.5-0.5-3-1.1-4.5-1.9c-1-0.5-1.6-0.4-2.3,0.5c-0.3,0.4-0.8,0.7-1.3,1.1c-1.2-1.5-2.7-1.8-4.2-1c-1.7,0.9-1.7,2.6-1.8,4.3
				C34.4,39.5,34.8,39.6,35.3,39.6z M49.3,70.3c-3.2,0-5.9,2.6-6,5.8c-0.1,3.2,2.7,6.1,6,6c3.2,0,5.9-2.7,5.9-5.9
				C55.2,73,52.6,70.3,49.3,70.3z M99.4,70.3c-3.2,0-5.9,2.7-5.9,5.9c0,3.2,2.7,5.9,5.9,6c3.3,0,6-2.7,6-6
				C105.4,73,102.7,70.3,99.4,70.3z M61,76.2c0,3.3,2.6,5.9,5.8,6c3.2,0,6-2.7,6-6c0-3.2-2.7-5.9-5.9-5.9C63.7,70.3,61,72.9,61,76.2
				z"/>
			<path class="st2" d="M37.4,76.2c-1.7,0-2.3-0.7-2.3-2.3c0-2.4,0-4.9,0-7.3c0-2,0.6-2.5,2.6-2.5c13,0,26,0,39,0c0.5,0,0.9,0,1.4,0
				c0.1-0.3,0.2-0.6,0.3-0.9c2.1-6.4,4.2-12.9,6.2-19.3c0.6-1.9,0.7-2,2.8-2c3.4,0,6.9,0.2,10.3,0.1c1.6,0,2.6,0.7,3.2,2.1
				c1,2.2,2,4.4,3,6.6c1.3,2.7,3,4.9,5.8,6c1,0.4,1.5,1.2,1.5,2.2c0,5.1,0,10.2,0,15.3c0,1-0.6,1.8-1.7,1.9c-0.8,0.1-1.6,0-2.4,0
				c-1.3-5.2-3.7-7.6-7.7-7.5c-4,0-6.5,2.4-7.7,7.5c-5.7,0-11.4,0-17.1,0c-1.1-5-3.6-7.4-7.6-7.5c-4-0.1-6.6,2.4-7.8,7.5
				c-0.7,0-1.5,0-2.2,0c-1-4.9-3.7-7.6-7.7-7.5c-3.2,0-7.1,2.1-7.6,7.6C40.2,76.2,38.8,76.2,37.4,76.2z M100.8,54.8
				c1.4,0,1.7-0.5,1.2-1.7c-1-2.5-2.1-4.9-3.1-7.4c-0.3-0.7-0.7-1-1.5-1c-2.9,0-5.8,0-8.7,0c-1,0-1.3,0.4-1.3,1.4c0,2.4,0,4.8,0,7.2
				c0,1.3,0.2,1.5,1.6,1.5c2,0,3.9,0,5.9,0C96.8,54.8,98.8,54.8,100.8,54.8z"/>
		</g>
	</g>
</g>
</svg>
