<?xml version="1.0" encoding="utf-8"?>
<!-- Generator: Adobe Illustrator 21.0.2, SVG Export Plug-In . SVG Version: 6.00 Build 0)  -->
<svg version="1.1" id="Layer_1" xmlns="http://www.w3.org/2000/svg" xmlns:xlink="http://www.w3.org/1999/xlink" x="0px" y="0px"
	 viewBox="0 0 142.6 125.9" style="enable-background:new 0 0 142.6 125.9;" xml:space="preserve">
<style type="text/css">
	.st0{fill:#16A8B5;}
	.st1{fill:#0A838C;}
	.st2{fill:none;stroke:#0A838C;stroke-width:0.7576;stroke-linecap:round;stroke-miterlimit:10;}
</style>
<g>
	<path class="st0" d="M93.2,120c-11.2-0.1-20.3-0.7-29-3.6c-3.1-1-5.9-2.4-8.1-4.8c-1-1-1.6-2.2-1.8-3.7
		c-1.6-13.2-3.1-26.5-4.7-39.7c-1.6-13.6-3.1-27.1-4.8-40.7c-0.2-1.5,0.2-1.7,1.6-1.3c11.5,3.1,23.2,4.6,35.1,5.3
		c13.9,0.8,27.7-0.5,41.4-2.5c4.3-0.6,8.6-1.5,12.7-3.1c2-0.8,2.1,0,1.9,1.6c-0.6,4.6-1.1,9.2-1.6,13.8c-0.9,7.6-1.8,15.3-2.7,22.9
		c-0.9,7.6-1.8,15.3-2.7,22.9c-0.8,6.9-1.7,13.8-2.3,20.7c-0.2,2.6-1.5,4.1-3.4,5.5c-4.6,3.2-10,4.4-15.5,5.3
		C103.2,119.6,97.2,120.1,93.2,120z"/>
	<path class="st1" d="M53.2,94.8c3.8,0,7.6,0,11.3,0c1.2,0,1.7,0.3,1.6,1.6c-0.1,1.5,0.1,2.9,0,4.4c-0.1,1.5,0.3,2,1.9,2.1
		c8.9,0.4,17.7,1.4,26.3,3.9c2.7,0.8,5.3,1.8,7.5,3.5c2,1.5,2.1,2.1,0.2,3.8c-2.6,2.4-5.9,3.5-9.2,4.5c-6.1,1.9-12.5,2.5-18.8,3.1
		c-8,0.8-16,1.2-24,0.9c-12.4-0.5-24.8-0.9-36.9-4c-2.9-0.8-5.7-1.8-8.1-3.6c-2.7-2-2.8-3.1,0.1-5c3.7-2.4,7.9-3.6,12.2-4.5
		c7.2-1.6,14.5-2.6,21.8-3c0.9-0.1,1.1-0.4,1.1-1.2c0-1.6,0.1-3.2,0-4.8c-0.1-1.4,0.5-1.8,1.8-1.8C45.7,94.9,49.5,94.8,53.2,94.8z"
		/>
	<path class="st1" d="M40.7,15.3c3.1,2.2,6.2,3.7,9.6,4.7c6.1,1.8,12.3,2.5,18.6,3.1c9.1,0.9,18.3,1.2,27.4,1
		c10.9-0.3,21.9-0.9,32.6-3.4c4.5-1,8.8-2.7,12.7-5.9c0.4,2.2,0.3,4.1,0.2,6c-0.1,0.9-1.1,1.3-1.8,1.7c-4.1,2.3-8.6,3.4-13.1,4.3
		c-10.2,2-20.5,2.9-30.8,3.3c-15.8,0.6-31.4-1-46.7-4.6C46.7,25,44.3,24,42,22.8c-0.9-0.5-1.4-1.1-1.3-2.2
		C40.8,19,40.7,17.3,40.7,15.3z"/>
	<path class="st2" d="M41,13.5c0,0,2.8-9.3,49.9-9.3c0,0,39.6-0.3,50,8.8"/>
</g>
</svg>
