<?xml version="1.0" encoding="utf-8"?>
<!-- Generator: Adobe Illustrator 21.0.2, SVG Export Plug-In . SVG Version: 6.00 Build 0)  -->
<svg version="1.1" id="Layer_1" xmlns="http://www.w3.org/2000/svg" xmlns:xlink="http://www.w3.org/1999/xlink" x="0px" y="0px"
	 viewBox="0 0 142.6 125.9" style="enable-background:new 0 0 142.6 125.9;" xml:space="preserve">
<style type="text/css">
	.st0{fill:#F1EFED;}
	.st1{fill:#E6E4E1;}
</style>
<g>
	<path class="st0" d="M71.5,124.5c-11-0.1-19.9-0.7-28.5-3.5c-3-1-5.8-2.3-8-4.7c-0.9-1-1.6-2.2-1.7-3.6c-1.5-13-3.1-26-4.6-38.9
		c-1.6-13.3-3.1-26.6-4.7-39.9c-0.2-1.5,0.2-1.6,1.5-1.3c11.3,3.1,22.8,4.5,34.4,5.2c13.6,0.8,27.2-0.5,40.6-2.5
		c4.2-0.6,8.5-1.4,12.5-3c2-0.8,2,0,1.9,1.5c-0.6,4.5-1.1,9-1.6,13.6c-0.9,7.5-1.7,15-2.6,22.5c-0.9,7.5-1.8,15-2.7,22.5
		c-0.8,6.8-1.7,13.6-2.3,20.4c-0.2,2.5-1.5,4.1-3.4,5.4c-4.6,3.2-9.9,4.3-15.2,5.2C81.3,124.2,75.4,124.7,71.5,124.5z"/>
	<path class="st0" d="M69.3,1.8c3.7,0,7.4,0,11.1,0c1.2,0,1.7,0.3,1.6,1.5c-0.1,1.4,0.1,2.9,0,4.3c-0.1,1.5,0.3,2,1.9,2
		c8.7,0.4,17.4,1.3,25.8,3.9c2.6,0.8,5.2,1.8,7.4,3.4c2,1.5,2,2.1,0.2,3.8c-2.6,2.3-5.8,3.4-9,4.4c-6,1.9-12.2,2.4-18.4,3
		c-7.8,0.8-15.7,1.2-23.6,0.9c-12.1-0.4-24.3-0.8-36.2-3.9c-2.8-0.7-5.6-1.8-7.9-3.6c-2.7-2-2.7-3,0.1-4.9c3.6-2.4,7.8-3.5,12-4.4
		c7.1-1.5,14.2-2.5,21.4-3c0.9-0.1,1.1-0.4,1-1.2c0-1.6,0.1-3.1,0-4.7c-0.1-1.4,0.5-1.8,1.8-1.7C62,1.9,65.7,1.8,69.3,1.8z"/>
	<path class="st0" d="M20,21.8c3,2.2,6.1,3.6,9.4,4.6c6,1.7,12.1,2.4,18.2,3c8.9,0.9,17.9,1.2,26.9,1c10.7-0.2,21.5-0.9,32-3.3
		c4.4-1,8.7-2.6,12.4-5.8c0.4,2.1,0.3,4,0.2,5.9c-0.1,0.9-1,1.3-1.8,1.7c-4,2.3-8.4,3.4-12.9,4.3c-10,2-20.1,2.9-30.2,3.3
		c-15.5,0.6-30.8-0.9-45.9-4.5c-2.5-0.6-4.8-1.5-7.1-2.7c-0.9-0.5-1.3-1.1-1.3-2.1C20,25.4,20,23.8,20,21.8z"/>
	<path class="st0" d="M20.3,20c0,0,2.7-9.1,49-9.1c0,0,38.8-0.3,49,8.6"/>
</g>
<g>
	<path class="st1" d="M103.9,55.3C94,57.1,84,58,74,58.3c-15.3,0.6-30.4-0.9-45.4-4.3c-0.8-0.2-1.6-0.4-2.4-0.7
		c0.9,7.7,1.9,15.4,2.8,23.1c1.5,12.2,3,24.4,4.5,36.6c0.2,1.3,0.8,2.4,1.7,3.4c2.2,2.2,4.9,3.5,7.9,4.4c8.5,2.6,17.2,3.3,28.1,3.3
		c3.9,0.1,9.8-0.3,15.6-1.2c5.3-0.8,10.5-1.9,15-4.9c1.9-1.2,3.1-2.7,3.3-5c0.6-6.4,1.5-12.8,2.3-19.1c0.9-7,1.8-14.1,2.6-21.1
		c0.8-6.6,1.6-13.2,2.4-19.8C109.8,54,106.9,54.7,103.9,55.3z"/>
</g>
</svg>
