<?xml version="1.0" encoding="utf-8"?>
<!-- Generator: Adobe Illustrator 21.0.2, SVG Export Plug-In . SVG Version: 6.00 Build 0)  -->
<svg version="1.1" id="Layer_1" xmlns="http://www.w3.org/2000/svg" xmlns:xlink="http://www.w3.org/1999/xlink" x="0px" y="0px"
	 viewBox="0 0 14 12.7" style="enable-background:new 0 0 14 12.7;" xml:space="preserve">
<style type="text/css">
	.st0{fill:#E4AE24;}
</style>
<path class="st0" d="M9.4,2C9.3,1.4,9.1,0.8,8.7,0.4C8,1,7.9,2,8.3,3.2C8.2,3.1,8.1,3,8,3C7.7,2.8,7.4,2.6,7,2.5
	c-0.3-0.1-0.6,0-0.8,0.2c0.1,0.5,0.2,0.9,0.3,1.4c0,0.1,0,0.2,0,0.2c0,0.2-0.2,0.2-0.3,0.2C6,4.5,5.9,4.4,5.9,4.3
	C5.9,4,5.8,3.7,5.7,3.4c0-0.1-0.1-0.2-0.1-0.4C5.3,3.3,5.1,3.7,4.8,4C4.6,4.2,4.6,4.4,4.6,4.6C4.7,5,4.8,5.4,4.9,5.8
	c0,0.2,0,0.3-0.1,0.4C4.5,6.3,4.4,6.2,4.3,6C4.2,5.7,4.2,5.4,4.1,5.1c0,0,0-0.1,0-0.1C4,5.1,3.9,5.3,3.8,5.4C3.5,5.9,3.3,6.3,3,6.8
	C3,6.8,3,6.9,3,7c0.1,0.4,0.2,0.9,0.3,1.3c0.1,0.3-0.1,0.5-0.4,0.4c-0.1,0-0.2-0.1-0.2-0.3C2.5,8.3,2.5,8,2.5,7.8c0,0,0-0.1,0-0.1
	C2.3,7.9,2.2,8,2.1,8.2c-0.3,0.5-0.5,1-0.7,1.5c0,0.1,0,0.1,0,0.2c0.1,0.3,0.1,0.6,0.2,0.9c0,0.1,0,0.2,0,0.3
	c-0.1,0.1-0.2,0.2-0.3,0.1C1,11.3,1,11.2,1,11.1c0-0.1,0-0.2,0-0.3c0,0.1-0.1,0.1-0.1,0.1c-0.1,0.4-0.3,0.7-0.4,1.1
	c0,0.1-0.1,0.2,0,0.3c0.1,0.1,0.2,0.1,0.3,0c0.6-0.3,1.3-0.6,1.9-0.9c0.3-0.1,0.6-0.3,0.9-0.5c-0.1,0-0.2,0-0.3,0
	c-0.2,0-0.3-0.1-0.2-0.3c0-0.2,0.2-0.3,0.3-0.3c0.3,0.1,0.7,0.1,1,0.2c0.1,0,0.1,0,0.2,0C5.2,10,5.8,9.6,6.5,9.3c0,0,0,0,0,0
	c-0.2,0-0.5,0-0.7,0C5.6,9.2,5.6,9,5.6,8.8c0-0.2,0.2-0.3,0.3-0.3C6.3,8.6,6.6,8.7,7,8.8c0.1,0,0.3,0,0.4-0.1
	c0.4-0.3,0.7-0.6,1.1-0.8c0.1,0,0.1-0.1,0.2-0.2C8.3,7.6,7.9,7.5,7.6,7.4c-0.1,0-0.3,0-0.3-0.2C7.1,7,7.3,6.8,7.6,6.9
	c0.5,0.1,1,0.2,1.5,0.3c0.1,0,0.1,0,0.2-0.1c0.2-0.2,0.3-0.4,0.5-0.6c0.3-0.4,0.4-0.9,0.1-1.4C9.7,4.9,9.6,4.6,9.4,4.3
	c0,0-0.1-0.1-0.1-0.1c1.1,0.4,2,0.3,2.8-0.4c-0.4-0.5-1-0.7-1.6-0.7c0.5-0.5,0.7-1.1,0.7-1.8c-0.4,0-0.7,0.1-1,0.2
	C10,1.6,9.7,1.8,9.4,2z"/>
</svg>
