<?xml version="1.0" encoding="utf-8"?>
<!-- Generator: Adobe Illustrator 21.0.2, SVG Export Plug-In . SVG Version: 6.00 Build 0)  -->
<svg version="1.1" id="Layer_1" xmlns="http://www.w3.org/2000/svg" xmlns:xlink="http://www.w3.org/1999/xlink" x="0px" y="0px"
	 viewBox="0 0 75.6 93.7" style="enable-background:new 0 0 75.6 93.7;" xml:space="preserve">
<style type="text/css">
	.st0{fill:#FFFFFF;}
	.st1{fill:#A2AC38;}
</style>
<path class="st0" d="M20.7,21.8c-0.5,1.5-1,3-1.4,4.5c-1.3,4.2-2.6,8.3-3.9,12.5c-1.4,4.4-2.7,8.7-4.1,13.1
	C9.9,56,8.6,60.1,7.3,64.3c-1.3,4.3-2.6,8.5-4,12.8c-0.3,1-0.1,1.4,0.8,1.7c12,4.9,24,9.8,36.1,14.7c0.2,0.1,0.4,0.2,0.6,0.2
	c0.3-0.1,0.8-0.1,0.9-0.4c1.6-3,3.1-6.1,4.7-9.2c2-3.9,3.9-7.8,5.9-11.7c2.4-4.7,4.7-9.3,7.1-14c2.1-4.1,4.2-8.3,6.3-12.4
	c0.8-1.7,1.7-3.3,2.5-5C52.3,34.6,36.5,28.2,20.7,21.8z M71.9,36.5c-16.9-6.9-33.8-13.8-50.6-20.6c-0.5,1.3-1.1,2.6-1.6,3.8
	c16.9,6.9,33.8,13.8,50.6,20.6C70.8,39,71.3,37.7,71.9,36.5z M49.9,25.7c2.1-5.3,4.3-10.5,6.4-15.7c5.7,1.1,11.2,2.2,16.8,3.3
	c0.4-1.9,0.8-3.7,1.2-5.5c-0.3-0.1-0.4-0.2-0.6-0.2c-6.7-1.3-13.5-2.6-20.2-3.9c-0.7-0.1-1,0.1-1.2,0.7c-2.5,6.1-4.9,12.2-7.4,18.3
	c-0.1,0.3-0.2,0.6-0.3,0.9C46.3,24.3,48,25,49.9,25.7z"/>
<path class="st1" d="M20.7,21.8c15.8,6.4,31.6,12.9,47.4,19.3c-0.8,1.7-1.7,3.4-2.5,5c-2.1,4.1-4.2,8.3-6.3,12.4
	c-2.4,4.7-4.7,9.3-7.1,14c-2,3.9-4,7.8-5.9,11.7c-1.5,3.1-3.1,6.1-4.7,9.2c-0.1,0.2-0.6,0.3-0.9,0.4c-0.2,0-0.4-0.1-0.6-0.2
	c-12-4.9-24-9.8-36.1-14.7c-0.9-0.4-1.1-0.7-0.8-1.7c1.4-4.2,2.7-8.5,4-12.8c1.3-4.2,2.6-8.3,3.9-12.5c1.4-4.4,2.7-8.7,4.1-13.1
	c1.3-4.2,2.6-8.3,3.9-12.5C19.7,24.8,20.2,23.3,20.7,21.8z M38.3,62.6c3.4-1.4,6.8-2.9,10.1-4.3c-1.4-3.4-2.8-6.8-4.2-10.2
	c-3.4,1.4-6.8,2.9-10.2,4.3C35.5,55.8,36.9,59.2,38.3,62.6z M18.5,69.7c3.5-1.5,6.9-2.9,10.2-4.3c-1.4-3.3-2.8-6.7-4.2-10
	c-3.3,1.4-6.8,2.9-10.1,4.2C15.8,63,17.2,66.4,18.5,69.7z M28.6,74.6c1.4,3.4,2.8,6.9,4.2,10.2c3.4-1.4,6.8-2.9,10-4.2
	c-1.4-3.4-2.9-6.8-4.3-10.2C35.2,71.8,31.8,73.2,28.6,74.6z"/>
<path class="st1" d="M71.9,36.5c-0.5,1.3-1,2.5-1.6,3.8c-16.9-6.9-33.7-13.7-50.6-20.6c0.5-1.2,1-2.5,1.6-3.8
	C38.1,22.7,54.9,29.6,71.9,36.5z"/>
<path class="st1" d="M49.9,25.7c-1.8-0.7-3.5-1.4-5.3-2.2c0.1-0.3,0.2-0.6,0.3-0.9c2.5-6.1,5-12.2,7.4-18.3c0.3-0.7,0.6-0.8,1.2-0.7
	c6.7,1.3,13.5,2.6,20.2,3.9c0.2,0,0.3,0.1,0.6,0.2c-0.4,1.8-0.8,3.6-1.2,5.5c-5.6-1.1-11.2-2.2-16.8-3.3
	C54.1,15.3,52,20.5,49.9,25.7z"/>
<path class="st0" d="M38.3,62.6c-1.4-3.4-2.9-6.8-4.3-10.1c3.4-1.4,6.8-2.9,10.2-4.3c1.4,3.3,2.8,6.8,4.2,10.2
	C45.2,59.7,41.7,61.1,38.3,62.6z"/>
<path class="st0" d="M18.5,69.7c-1.3-3.3-2.7-6.8-4.1-10.1c3.3-1.4,6.7-2.8,10.1-4.2c1.4,3.3,2.8,6.7,4.2,10
	C25.5,66.8,22,68.3,18.5,69.7z"/>
<path class="st0" d="M28.6,74.6c3.2-1.4,6.7-2.8,10-4.2c1.4,3.4,2.9,6.8,4.3,10.2c-3.2,1.4-6.7,2.8-10,4.2
	C31.4,81.5,30,78,28.6,74.6z"/>
</svg>
