<?xml version="1.0" encoding="utf-8"?>
<!-- Generator: Adobe Illustrator 21.0.2, SVG Export Plug-In . SVG Version: 6.00 Build 0)  -->
<svg version="1.1" id="Layer_1" xmlns="http://www.w3.org/2000/svg" xmlns:xlink="http://www.w3.org/1999/xlink" x="0px" y="0px"
	 viewBox="0 0 52.4 55.9" style="enable-background:new 0 0 52.4 55.9;" xml:space="preserve">
<style type="text/css">
	.st0{fill:#0A838C;}
</style>
<path class="st0" d="M26.4,18.3c-2.1-5.2-6-8.4-11.2-10.5c0.2-0.6,0.4-1.2,0.6-1.9c4.1,1.2,7.2,3.5,9.3,6.9c0.1-1.3,0.1-2.7,0.5-4
	c1-3.5,3.3-5.6,6.9-6.3c2.6-0.5,5.1-1.2,7.4-2.4C40,0.1,40.1,0.1,40.3,0c0.2,3.4,0,6.6-2.2,9.4c-1.2,1.5-2.9,2.1-4.8,2.4
	c-1.7,0.3-3.3,0.7-5,1c-0.5,0.1-0.9,0.3-1.3,0.6c-1,0.6-1,0.6-0.6,1.7c0.4,1.1,0.7,2.2,1,3.5c0.2-0.1,0.5-0.3,0.7-0.4
	c2.8-1.7,5.8-2.7,9-2.7c6.2,0.1,11.1,3.3,13.5,9c4.8,11.5-0.4,24.1-12.2,28.8C30.8,56.4,22.9,56.8,15,54C7.1,51.3,2.4,45.5,0.6,37.3
	c-0.9-4.2-0.7-8.4,0.6-12.5c1.6-5.1,5.2-8.1,10.3-9.5c4.9-1.3,9.5-0.4,13.9,2.2c0.2,0.1,0.4,0.2,0.6,0.4
	C26.1,18.1,26.2,18.2,26.4,18.3z"/>
</svg>
