<?xml version="1.0" encoding="utf-8"?>
<!-- Generator: Adobe Illustrator 21.0.2, SVG Export Plug-In . SVG Version: 6.00 Build 0)  -->
<svg version="1.1" id="Layer_1" xmlns="http://www.w3.org/2000/svg" xmlns:xlink="http://www.w3.org/1999/xlink" x="0px" y="0px"
	 viewBox="0 0 52.4 55.9" style="enable-background:new 0 0 52.4 55.9;" xml:space="preserve">
<style type="text/css">
	.st0{fill:#0A838C;}
</style>
<g>
	<path class="st0" d="M10.5,8c1.7,1,3.4,1.9,5.1,2.8c0.5,0.3,0.8,0.2,1.3,0c1.1-0.5,2.2-0.9,3.4-1.4C20.5,9.3,20.9,9,21,8.7
		c0.5-1.6,1-3.3,1.4-5C22.5,3.2,22.7,3,23.3,3c2,0,3.9,0,5.9,0c0.5,0,0.7,0.2,0.9,0.7c0.4,1.7,0.9,3.3,1.4,5
		c0.1,0.4,0.3,0.6,0.8,0.8c1.2,0.4,2.3,1,3.5,1.4c0.3,0.1,0.8,0.1,1.1,0C38.4,10,40.1,9,41.9,8c1.6,1.6,3.2,3.2,4.8,4.9
		c0.1,0.1,0.1,0.5-0.1,0.8c-0.8,1.5-1.7,3-2.5,4.5c-0.2,0.4-0.3,0.7,0,1.2c0.5,1.1,1,2.3,1.4,3.4c0.2,0.4,0.4,0.7,0.8,0.8
		c1.7,0.5,3.4,1,5.1,1.4c0.5,0.1,0.6,0.3,0.6,0.8c0,2,0,4,0,5.9c0,0.5-0.1,0.7-0.6,0.8C49.7,33,48,33.5,46.3,34
		c-0.3,0.1-0.6,0.4-0.7,0.7c-0.5,1.2-1,2.3-1.5,3.5c-0.1,0.3-0.1,0.8,0,1.1c0.8,1.5,1.7,3,2.5,4.5c0.2,0.4,0.3,0.7-0.1,1
		c-1.4,1.4-2.9,2.8-4.3,4.2c-0.3,0.3-0.5,0.3-0.9,0.1c-1.5-0.9-3.1-1.8-4.7-2.6c-0.3-0.1-0.7-0.1-1,0c-1.2,0.4-2.3,1-3.5,1.4
		c-0.5,0.2-0.6,0.4-0.8,0.8c-0.5,1.7-1,3.3-1.4,5c-0.1,0.5-0.3,0.7-0.8,0.7c-2,0-4,0-5.9,0c-0.5,0-0.7-0.2-0.8-0.6
		c-0.4-1.7-0.9-3.4-1.4-5.1c-0.1-0.3-0.4-0.6-0.7-0.7c-1.2-0.5-2.3-1-3.5-1.5c-0.3-0.1-0.7-0.1-1,0c-1.6,0.8-3.1,1.7-4.7,2.6
		c-0.4,0.2-0.6,0.2-0.9-0.1c-1.4-1.5-2.9-2.9-4.3-4.3c-0.3-0.3-0.3-0.6-0.1-0.9c0.9-1.5,1.7-3.1,2.6-4.6c0.2-0.4,0.2-0.7,0-1.1
		c-0.5-1.2-1-2.3-1.5-3.5c-0.1-0.3-0.4-0.6-0.7-0.7c-1.7-0.5-3.4-1-5.1-1.5c-0.5-0.1-0.6-0.3-0.6-0.8c0-2,0-3.9,0-5.9
		c0-0.5,0.1-0.8,0.7-0.9c1.7-0.4,3.3-0.9,5-1.4c0.4-0.1,0.7-0.3,0.8-0.8c0.4-1.2,0.9-2.3,1.4-3.4c0.2-0.4,0.2-0.8,0-1.2
		c-0.9-1.5-1.7-3-2.5-4.5c-0.1-0.2-0.2-0.7,0-0.8C7.3,11.2,8.9,9.6,10.5,8z M13.9,28.8c0,6.8,5.5,12.3,12.3,12.3
		c6.8,0,12.2-5.5,12.2-12.2c0-6.8-5.5-12.3-12.3-12.3C19.4,16.5,13.9,22,13.9,28.8z"/>
	<path class="st0" d="M14.8,28.8c0-6.3,5.1-11.4,11.4-11.4c6.3,0,11.4,5.1,11.4,11.4c0,6.3-5.1,11.4-11.4,11.4
		C19.9,40.2,14.9,35.2,14.8,28.8z"/>
</g>
</svg>
