<?xml version="1.0" encoding="utf-8"?>
<!-- Generator: Adobe Illustrator 21.0.2, SVG Export Plug-In . SVG Version: 6.00 Build 0)  -->
<svg version="1.1" id="Layer_1" xmlns="http://www.w3.org/2000/svg" xmlns:xlink="http://www.w3.org/1999/xlink" x="0px" y="0px"
	 viewBox="0 0 317.3 127.8" style="enable-background:new 0 0 317.3 127.8;" xml:space="preserve">
<style type="text/css">
	.st0{fill:#073C5C;}
</style>
<path class="st0" d="M162.2,36.6H158c-0.3,0-0.6,0.2-0.8,0.4l-20.3,34.1L116.6,37c-0.2-0.3-0.5-0.4-0.8-0.4h-4.2
	c-0.5,0-0.9,0.4-0.9,0.9v52.4c0,0.5,0.4,0.9,0.9,0.9h5.5c0.2,0,0.5-0.1,0.7-0.3c0.2-0.2,0.3-0.4,0.3-0.7l-0.1-37.3l16.5,27.4
	c0.2,0.3,0.5,0.4,0.8,0.4h3.7c0.3,0,0.6-0.2,0.8-0.4l16.3-27.2l-0.1,37.1c0,0.2,0.1,0.5,0.3,0.6c0.2,0.2,0.4,0.3,0.6,0.3h5.5
	c0.5,0,0.9-0.4,0.9-0.9V37.5C163.1,37,162.7,36.6,162.2,36.6"/>
<path class="st0" d="M192.5,58.9c6,0,10.2,3.9,11.1,10.3h-23.1C181.6,63.9,185.5,58.9,192.5,58.9 M192.7,52.5
	c-11.1,0-19.4,8.4-19.4,19.6c0,11.2,8.3,19.7,19.4,19.7c8.1,0,14.8-4.2,17-10.6c0.1-0.3,0.1-0.6-0.1-0.8c-0.2-0.2-0.5-0.4-0.7-0.4
	h-5.7c-0.4,0-0.7,0.2-0.8,0.5c-1.5,3.1-5,4.9-9.5,4.9c-6.4,0-11.1-4-12.3-10.3h29.1c0,0,0.1,0,0.1,0c0.2,0,0.4,0,0.6-0.1
	c0.3-0.1,0.4-0.4,0.5-0.7c0.1-0.7,0.1-1.6,0.1-2.3C210.9,60.7,203.2,52.5,192.7,52.5"/>
<path class="st0" d="M243.8,84.5c-0.2-0.1-0.5-0.2-0.7-0.1c-2,0.6-4.1,0.9-5.8,0.9c-5,0-7-2.4-7-8.2V59.8h12.6
	c0.5,0,0.9-0.4,0.9-0.9v-4.5c0-0.5-0.4-0.9-0.9-0.9h-12.6V41.1c0-0.5-0.4-0.9-0.9-0.9h-5.2c-0.5,0-0.9,0.4-0.9,0.9v12.3h-8.6
	c-0.5,0-0.9,0.4-0.9,0.9v4.5c0,0.5,0.4,0.9,0.9,0.9h8.6v17.3c0,9.7,4.6,14.9,13.2,14.9c2.6,0,4.7-0.3,8-1.3c0.5-0.1,0.7-0.6,0.6-1.1
	l-0.8-4.5C244.2,84.9,244,84.6,243.8,84.5"/>
<path class="st0" d="M272.7,52.5c-5,0-9.6,1.9-13,5.5v-3.7c0-0.5-0.4-0.9-0.9-0.9h-5.2c-0.5,0-0.9,0.4-0.9,0.9v35.6
	c0,0.5,0.4,0.9,0.9,0.9h5.2c0.5,0,0.9-0.4,0.9-0.9v-23c3-4.8,7.6-7.4,13.1-7.6c0.5,0,0.9-0.4,0.9-0.9v-5
	C273.7,52.9,273.2,52.5,272.7,52.5"/>
<path class="st0" d="M296.9,85.4c-7.1,0-12.7-5.8-12.7-13.3c0-7.3,5.6-13,12.7-13c7.1,0,12.7,5.7,12.7,13
	C309.7,79.5,304.1,85.4,296.9,85.4 M296.9,52.5c-11.1,0-19.9,8.6-19.9,19.6c0,11.1,8.7,19.9,19.9,19.9c11.1,0,19.8-8.7,19.8-19.9
	C316.7,61.1,308,52.5,296.9,52.5"/>
<path class="st0" d="M81.5,55c0,0.6-0.7,1.1-1.3,0.7L66.9,47c-0.3-0.2-0.5-0.5-0.5-0.9V32.9c0-0.7,0.8-1.1,1.4-0.7l13,8.4
	c0.2,0.1,0.4,0.3,0.4,0.6c0.2,1.5,0.3,3.1,0.3,4.7L81.5,55z M81.5,79.9c0,0.4-0.3,0.9-0.9,0.9h-6.4c-0.6,0-0.9-0.5-0.9-0.8V67
	c0-0.5-0.4-0.9-0.9-0.9H56.5c-0.5,0-0.9,0.4-0.9,0.9v12.9c0,0.5-0.5,0.8-0.8,0.8h-6.4c-0.5,0-0.9-0.3-0.9-0.9v-17
	c0-0.2,0.1-0.5,0.3-0.7l15.5-11c0.3-0.2,0.7-0.3,1.1,0L80.9,62c0.4,0.2,0.6,0.6,0.6,1V79.9z M79.9,93.6c-0.2,0.7-0.8,1.4-1.3,1.8
	c-3.1,2-6,2.6-11.7,2.6c-13.5,0-22.1-6.2-36.5-6.2c-8.9,0-14.6,2-18.3,3.9c-0.5,0.3-1.1-0.1-1.2-0.5C9.7,92,9,89,8.8,85.4
	c-0.1-1,0.1-1.2,0.5-1.5l12.9-8.2c0.6-0.4,1.4,0.1,1.4,0.6v8.4c0,0.4,0.4,0.9,0.9,0.9h3.1c0.4,0,0.8-0.4,0.8-0.9v-8.2
	c0-0.7,0.8-1.2,1.4-0.7l12.4,9.4c0.2,0.2,0.8,0.4,1.4,0.4h16.1c0.5,0,0.9-0.4,0.9-0.9l0-12.8c0-0.5,0.4-0.9,0.9-0.9h6.4
	c0.5,0,0.9,0.4,0.9,0.9v12.9c0,0.5,0.4,0.9,0.9,0.9h10.9c0.6,0,1,0.4,0.9,1C80.9,89.1,80.5,91.3,79.9,93.6 M74.9,103.5
	c-2.4,3.3-4,5-7.2,7.6c-0.7,0.6-1.5,0.8-2.4,0.8c-11.3-0.1-20.2-8.9-33.4-7.3c-5.2,0.6-8.8,2.3-11.2,4c-0.4,0.2-0.8,0.2-1.1-0.1
	c-2.3-2.2-3.9-4.3-5.6-7.1c-0.2-0.3-0.2-0.9,0.3-1.2c3-1.7,7.9-3.8,16-3.8c13.8,0,23.3,6.5,36.6,6.5c2.7,0,4.3-0.2,7.1-0.9
	C74.8,102,75.3,103,74.9,103.5 M57.1,117c-3.2,1.1-7.1,2-11.9,2c-6.5,0-14-2-19.7-5.8c-0.6-0.4-0.4-1.2,0.1-1.5c1.7-1,3.6-1.6,7-2
	c9.1-1.1,15.6,3.3,24.5,5.6C57.7,115.6,57.9,116.6,57.1,117 M8.7,77V63c0-0.6,0.2-0.7,0.5-0.9l13-8.7c0.6-0.4,1.4,0,1.4,0.8v14.3
	c0,0.3-0.1,0.6-0.4,0.8L9.9,77.8C9.3,78.1,8.7,77.6,8.7,77 M8.6,46.1c0-2.4,0.2-4.3,0.3-5c0-0.3,0.2-0.5,0.5-0.7L22,32.3
	c0.6-0.4,1.5-0.1,1.5,0.8v13.3c0,0.3-0.1,0.6-0.4,0.8L9.9,55.6c-0.6,0.3-1.3-0.1-1.3-0.8L8.6,46.1z M42.8,62.9v14.6
	c0,0.7-0.8,1.2-1.4,0.7l-12.8-8.9c-0.3-0.2-0.3-0.5-0.3-0.8V54.2c0-0.7,0.8-1.1,1.4-0.7l12.6,8.7C42.7,62.4,42.8,62.6,42.8,62.9
	 M30.5,48.1c-1.4-1-2.2-2.6-2.2-4.4v-8.2c0-2.1,2.1-3.5,4.1-2.7l12.4,6c0.3,0.1,0.6,0.1,0.8,0l12.1-6c1.9-0.8,4.1,0.6,4.1,2.7v8.3
	c0,1.8-0.9,3.4-2.3,4.4L45.6,58c-0.3,0.2-0.7,0.2-0.9,0L30.5,48.1z M11.8,31.2c5.3-12,17.8-21.6,33.3-21.6c15.6,0,28.3,10,33.4,21.7
	c0.3,0.6-0.4,1.6-1.2,1.1l-12.1-7.5c-0.7-0.5-1.6-0.4-2.4-0.1c-4.2,2-16.9,7.8-17.2,7.9c-0.2,0.1-0.4,0.1-0.7,0
	c-0.3-0.2-13.2-5.9-17.6-7.9c-0.9-0.4-1.9-0.4-2.5,0c0,0-11.4,7.3-11.7,7.5C12.2,32.8,11.5,31.9,11.8,31.2 M45,3.9
	c-23,0-42,18.7-42,42.2V82c0,23.4,18,42.8,42.1,42.8c23.8,0,42-19.3,42-42.1V45.9C87.1,23.4,68.8,3.9,45,3.9"/>
</svg>
