<?xml version="1.0" encoding="utf-8"?>
<!-- Generator: Adobe Illustrator 21.0.2, SVG Export Plug-In . SVG Version: 6.00 Build 0)  -->
<svg version="1.1" id="Layer_1" xmlns="http://www.w3.org/2000/svg" xmlns:xlink="http://www.w3.org/1999/xlink" x="0px" y="0px"
	 viewBox="0 0 251.3 106.2" style="enable-background:new 0 0 251.3 106.2;" xml:space="preserve">
<style type="text/css">
	.st0{fill:#0A838C;}
</style>
<g>
	<g>
		<path class="st0" d="M247.8,3.7c-59.5,0-126.5,0-186.2,0c0,18.8,0,37.6,0,56.3c59.7,0,126.7,0,186.2,0
			C247.8,41.1,247.8,22.6,247.8,3.7z"/>
		<path class="st0" d="M247.7,85.4c-1.6-6.1-4.5-11.5-9-16c-3.2-3.2-7-4.7-11.6-4.7c-13.2,0.1-26.4,0.1-39.6,0c-5,0-9,1.9-12.3,5.4
			c-4.1,4.5-6.9,9.7-8.4,15.6c-0.3,1.3-0.3,2.6-0.5,4c2.3,0,4.3,0,6.4,0c0.2-0.9,0.3-1.7,0.5-2.4c1.2-7.4,5-12.9,12.3-15.2
			c6.8-2.2,13.2-1.7,18.6,4c1,1.1,5,1.1,6.3,0c7.1-6.1,16-6.9,23.4-1.6c5.2,3.7,7.1,9.1,7.9,15.2c2,0,3.9,0,5.9,0
			C247.8,88.2,248,86.7,247.7,85.4z"/>
		<path class="st0" d="M103.4,65.8c-1.6-0.7-3.5-0.9-5.3-0.9c-13.8-0.1-27.6,0-41.3,0c-1.2,0-2.4,0-3.8,0c-0.1-1.4-0.3-2.3-0.2-3.3
			c0.2-13.4,0.3-26.9,0.6-40.3c0.1-2.7-0.5-3.8-3.5-3.7c-7.2,0.2-14.5,0-21.7,0c-3.6,0-8.1-1.2-10.6,0.5c-2.5,1.8-3.1,6.5-4.5,9.9
			c-0.2,0.5-0.4,1.1-0.6,1.6C5.6,44.1,2.2,59.3,3.9,75.4c0.2,2,0,4.1,0,6.1c0,8.2,0.5,8.6,8.6,8.6c2.1,0,3.1-0.6,3.9-2.7
			c1.3-3.3,2.9-6.6,5.1-9.5c4.9-6.6,13.8-9,20.5-5.2c3.4,1.9,6.2,5.2,8.7,8.2c1.3,1.5,2.3,2.4,4.4,2.3c4.2-0.1,8.4-0.2,12.5,0
			c4.9,0.3,8.6-0.4,12.1-4.9c4.7-5.9,11.6-8,19.2-6c6.7,1.8,10.3,6.6,12,13c1.3,5.1,1.7,5.4,7,4.1C118.2,81.1,110.8,68.9,103.4,65.8
			z M41.4,43.3c-10.1,1.1-20.1,2.1-30.8,3.2c2.9-8.2,5.6-15.7,8.4-23.1c0.2-0.6,1.3-1.3,2-1.4c6.7-0.1,13.5-0.1,20.4-0.1
			C41.4,29.1,41.4,36,41.4,43.3z"/>
	</g>
	<path class="st0" d="M190.6,104.2c-8.1,0-14.8-6.8-14.8-15c0.1-8,6.7-14.6,14.8-14.7c8.1,0,14.8,6.7,14.7,15
		C205.3,97.6,198.7,104.2,190.6,104.2z"/>
	<path class="st0" d="M34.7,104.2c-8.1,0-14.8-6.8-14.8-15c0.1-8,6.7-14.6,14.7-14.7c8.2,0,14.8,6.7,14.7,15
		C49.4,97.6,42.8,104.2,34.7,104.2z"/>
	<path class="st0" d="M92.9,74.5c8.1,0,14.9,6.8,14.9,14.9c0,8.1-6.6,14.7-14.6,14.8c-8.2,0.1-14.8-6.6-14.8-14.9
		C78.3,81.2,84.8,74.6,92.9,74.5z"/>
	<path class="st0" d="M223.4,74.5c8.1,0.1,14.6,6.6,14.6,14.8c0.1,8.1-6.7,15-14.8,14.9c-8-0.1-14.6-6.7-14.6-14.8
		C208.5,81.2,215.2,74.4,223.4,74.5z"/>
</g>
</svg>
