<?xml version="1.0" encoding="utf-8"?>
<!-- Generator: Adobe Illustrator 21.0.2, SVG Export Plug-In . SVG Version: 6.00 Build 0)  -->
<svg version="1.1" id="Layer_1" xmlns="http://www.w3.org/2000/svg" xmlns:xlink="http://www.w3.org/1999/xlink" x="0px" y="0px"
	 viewBox="0 0 136.5 72.1" style="enable-background:new 0 0 136.5 72.1;" xml:space="preserve">
<style type="text/css">
	.st0{opacity:0.7;fill:#DBD9D6;}
	.st1{fill:#A2AC38;}
</style>
<path class="st0" d="M135.9,15.6c0-0.6-0.4-1-1-1h-1.6c-0.2-0.2-0.4-0.3-0.7-0.3h-10.1c-0.3,0-0.5,0.1-0.7,0.3h-4.9
	c-0.2-0.4-0.7-0.4-1.5,0H98.1c-0.3-0.4-0.7-0.4-1.5,0H79.9c-0.6,0-1,0.4-1,1v7.8c-1.5,0.4-2.9,0.2-4.4,0.2c0-0.4-0.1-0.7-0.1-1
	c-0.5-10.1-1-10.1-1.5-20.2c-0.1-1.1-0.4-1.5-1.5-1.5c-2.1,0.1-4.3,0.1-6.4,0c-1.2,0-1.5,0.5-1.6,1.6c-0.3,7.7-0.7,5.4-1.1,13
	c-0.1,2.7-0.3,5.3-0.5,8.1c-0.7,0-1.4,0-2,0c0,0-0.9,0-2.1,0v-8c0-0.6-0.5-1-1-1H1.6c-0.5,0-1,0.4-1,1v11.8c0,0,0,0,0,0
	c0,11.2,0,22.5,0,33.7c0,1.7,0.1,1.9,1.7,1.9c23.1,0,46.2,0,69.3,0c0,0,0,0,0,0c20.8,0,41.6,0,62.4,0c1.7,0,1.9-0.2,1.9-1.9
	c0-12.3,0-24.7,0-37c0,0,0,0,0,0V15.6z M17.4,43.1c-2.5,0-4.9,0-7.3,0c0-2.7,0-5.4,0-8.1c2.5,0,4.9,0,7.3,0
	C17.4,37.7,17.4,40.3,17.4,43.1z M33.9,43c-2.5,0-4.9,0-7.3,0c0-2.7,0-5.4,0-8.1c2.5,0,4.9,0,7.3,0C33.9,37.7,33.9,40.3,33.9,43z
	 M50.3,43c-2.5,0-4.9,0-7.3,0c0-2.8,0-5.4,0-8.1c2.4,0,4.8,0,7.3,0C50.3,37.7,50.3,40.4,50.3,43z M87.6,42.8c-2.7,0-5.5,0-8.3,0
	c0-2.7,0-5.4,0-8.2c2.8,0,5.5,0,8.3,0C87.6,37.3,87.6,40,87.6,42.8z M106.3,42.8c-2.8,0-5.5,0-8.3,0c0-2.7,0-5.4,0-8.2
	c2.8,0,5.5,0,8.3,0C106.3,37.3,106.3,40,106.3,42.8z M125,42.8c-2.8,0-5.5,0-8.3,0c0-2.8,0-5.5,0-8.2c2.8,0,5.5,0,8.3,0
	C125,37.3,125,40,125,42.8z"/>
<g>
	<g>
		<g>
			<path class="st1" d="M31.3,30.6c-1.1,0-1.7,0.4-2.1,1.3c-1,2.2-2.1,4.3-3.2,6.5c-0.4,0.8-0.3,1.3,0.3,1.9
				c3.2,3.2,6.4,6.4,9.7,9.5c0.4,0.4,1,0.6,1.5,0.6c11.8,0,23.6,0,35.4,0c0.9,0,1.2-0.4,1.4-1.2c1.8-5.6,3.6-11.3,5.4-16.9
				c0.4-1.4,0.2-1.7-1.3-1.7c-7.1,0-14.2,0-21.2,0c-0.8,0-1.6,0-2.4,0C46.9,30.6,39.1,30.6,31.3,30.6z M32.7,28.6
				c8.4,0,16.7-0.1,25.1-0.1c6.8,0,13.7-0.1,20.5-0.1c1.3,0,1.9-0.3,1.9-1.6c0-0.4,0.2-0.8,0.3-1.4c-1.2-0.1-2.3-0.3-3.4-0.4
				c0-0.1-0.1-0.2-0.1-0.2c-0.2-2-0.3-2.1-2.1-1.3c-1.1,0.4-1.9,0.6-3-0.1c-0.7-0.4-2-0.3-2.9,0.1c-2.3,1-4.5,1.2-6.8,0.3
				c-1.1-0.4-2.2-0.2-3,0.8c-0.8,1-2,1.2-3.2,1c-1.3-0.2-2.5-0.5-3.7-0.8c-1.5-0.4-2.9-0.2-4.3,0.6c-0.6,0.4-1.7,0.4-2.5,0.2
				c-1.5-0.5-3-1.1-4.5-1.9c-1-0.5-1.6-0.4-2.3,0.5c-0.3,0.4-0.8,0.7-1.3,1.1c-1.2-1.5-2.7-1.8-4.2-1c-1.7,0.9-1.7,2.6-1.8,4.3
				C31.8,28.5,32.2,28.6,32.7,28.6z M46.7,59.3c-3.2,0-5.9,2.6-6,5.8c-0.1,3.2,2.7,6.1,6,6c3.2,0,5.9-2.7,5.9-5.9
				C52.6,62,50,59.4,46.7,59.3z M96.9,59.3c-3.2,0-5.9,2.7-5.9,5.9c0,3.2,2.7,5.9,5.9,6c3.3,0,6-2.7,6-6
				C102.8,62,100.1,59.3,96.9,59.3z M58.4,65.2c0,3.3,2.6,5.9,5.8,6c3.2,0,6-2.7,6-6c0-3.2-2.7-5.9-5.9-5.9
				C61.1,59.3,58.4,62,58.4,65.2z"/>
			<path class="st1" d="M34.8,65.2c-1.7,0-2.3-0.7-2.3-2.3c0-2.4,0-4.9,0-7.3c0-2,0.6-2.5,2.6-2.5c13,0,26,0,39,0c0.5,0,0.9,0,1.4,0
				c0.1-0.3,0.2-0.6,0.3-0.9c2.1-6.4,4.2-12.9,6.2-19.3c0.6-1.9,0.7-2,2.8-2c3.4,0,6.9,0.2,10.3,0.1c1.6,0,2.6,0.7,3.2,2.1
				c1,2.2,2,4.4,3,6.6c1.3,2.7,3,4.9,5.8,6c1,0.4,1.5,1.2,1.5,2.2c0,5.1,0,10.2,0,15.3c0,1-0.6,1.8-1.7,1.9c-0.8,0.1-1.6,0-2.4,0
				c-1.3-5.2-3.7-7.6-7.7-7.5c-4,0-6.5,2.4-7.7,7.5c-5.7,0-11.4,0-17.1,0c-1.1-5-3.6-7.4-7.6-7.5c-4-0.1-6.6,2.4-7.8,7.5
				c-0.7,0-1.5,0-2.2,0c-1-4.9-3.7-7.6-7.7-7.5c-3.2,0-7.1,2.1-7.6,7.6C37.6,65.2,36.2,65.2,34.8,65.2z M98.2,43.8
				c1.4,0,1.7-0.5,1.2-1.7c-1-2.5-2.1-4.9-3.1-7.4c-0.3-0.7-0.7-1-1.5-1c-2.9,0-5.8,0-8.7,0c-1,0-1.3,0.4-1.3,1.4c0,2.4,0,4.8,0,7.2
				c0,1.3,0.2,1.5,1.6,1.5c2,0,3.9,0,5.9,0C94.3,43.8,96.2,43.8,98.2,43.8z"/>
		</g>
	</g>
</g>
</svg>
